<svg xmlns="http://www.w3.org/2000/svg" viewBox="0 0 320 420" shape-rendering="crispEdges">
  <defs>
    <linearGradient id="sky" x1="0" y1="0" x2="0" y2="1">
      <stop offset="0" stop-color="#10133d"/>
      <stop offset="0.45" stop-color="#5c6987"/>
      <stop offset="1" stop-color="#091026"/>
    </linearGradient>
    <filter id="glow" x="-20%" y="-20%" width="140%" height="140%">
      <feGaussianBlur stdDeviation="3" result="blur"/>
      <feMerge><feMergeNode in="blur"/><feMergeNode in="SourceGraphic"/></feMerge>
    </filter>
  </defs>
  <rect width="320" height="420" fill="url(#sky)"/>
  <rect x="0" y="0" width="320" height="420" fill="#7df9ff" opacity="0.06"/>
  <path d="M0 172h22v-8h20v-8h38v-10h42v12h36v-10h28v12h38v-8h34v10h34v-6h28v264H0z" fill="#b9c1bf" opacity="0.28"/>
  <path d="M0 202h30v-16h22v-8h34v14h24v-12h38v16h32v-10h34v16h30v-14h28v12h48v220H0z" fill="#6f7f83" opacity="0.5"/>
  <path d="M0 245h24v-28h30v-18h32v30h28v-18h34v26h36v-16h34v26h30v-20h34v18h38v175H0z" fill="#293746" opacity="0.92"/>
  <path d="M130 230h18v-8h34v8h14v12h14v40h-94v-38h14z" fill="#151923"/>
  <rect x="136" y="238" width="62" height="72" fill="#10131c"/>
  <rect x="122" y="280" width="86" height="116" fill="#111622"/>
  <rect x="104" y="316" width="34" height="68" fill="#111622"/>
  <rect x="192" y="314" width="34" height="70" fill="#111622"/>
  <rect x="138" y="388" width="28" height="32" fill="#0b0e17"/>
  <rect x="176" y="388" width="28" height="32" fill="#0b0e17"/>
  <rect x="130" y="202" width="76" height="44" fill="#1f1820"/>
  <rect x="140" y="214" width="56" height="46" fill="#8b5b45"/>
  <rect x="134" y="210" width="66" height="20" fill="#0c111b"/>
  <rect x="146" y="226" width="10" height="8" fill="#111827"/>
  <rect x="180" y="226" width="10" height="8" fill="#111827"/>
  <rect x="158" y="242" width="18" height="6" fill="#2b1118"/>
  <rect x="0" y="344" width="320" height="76" fill="#16100e"/>
  <rect x="0" y="340" width="320" height="10" fill="#79534a"/>
  <g filter="url(#glow)">
    <rect x="18" y="22" width="8" height="8" fill="#7df9ff"/>
    <rect x="292" y="64" width="6" height="6" fill="#ff2bd6"/>
    <rect x="268" y="34" width="10" height="10" fill="#ffe66d"/>
  </g>
  <rect x="0" y="0" width="320" height="420" fill="none" stroke="#7df9ff" stroke-width="8" opacity="0.65"/>
  <rect x="10" y="10" width="300" height="400" fill="none" stroke="#ff2bd6" stroke-width="2" opacity="0.65"/>
</svg>
