<svg xmlns="http://www.w3.org/2000/svg" width="128" height="128" viewBox="0 0 128 128" shape-rendering="crispEdges">
  <g fill="#c0caf5" fill-opacity="0.32">
    <ellipse cx="8" cy="12" rx="1.8" ry="4"/>
    <ellipse cx="24" cy="18" rx="1.8" ry="4"/>
    <ellipse cx="40" cy="8" rx="1.8" ry="4"/>
    <ellipse cx="56" cy="22" rx="1.8" ry="4"/>
    <ellipse cx="72" cy="10" rx="1.8" ry="4"/>
    <ellipse cx="88" cy="20" rx="1.8" ry="4"/>
    <ellipse cx="104" cy="12" rx="1.8" ry="4"/>
    <ellipse cx="120" cy="24" rx="1.8" ry="4"/>
    <ellipse cx="14" cy="40" rx="1.8" ry="4"/>
    <ellipse cx="30" cy="52" rx="1.8" ry="4"/>
    <ellipse cx="46" cy="44" rx="1.8" ry="4"/>
    <ellipse cx="62" cy="56" rx="1.8" ry="4"/>
    <ellipse cx="78" cy="42" rx="1.8" ry="4"/>
    <ellipse cx="94" cy="54" rx="1.8" ry="4"/>
    <ellipse cx="110" cy="46" rx="1.8" ry="4"/>
    <ellipse cx="10" cy="72" rx="1.8" ry="4"/>
    <ellipse cx="26" cy="84" rx="1.8" ry="4"/>
    <ellipse cx="42" cy="74" rx="1.8" ry="4"/>
    <ellipse cx="58" cy="88" rx="1.8" ry="4"/>
    <ellipse cx="74" cy="76" rx="1.8" ry="4"/>
    <ellipse cx="90" cy="90" rx="1.8" ry="4"/>
    <ellipse cx="106" cy="78" rx="1.8" ry="4"/>
    <ellipse cx="122" cy="92" rx="1.8" ry="4"/>
    <ellipse cx="22" cy="108" rx="1.8" ry="4"/>
    <ellipse cx="54" cy="114" rx="1.8" ry="4"/>
    <ellipse cx="86" cy="110" rx="1.8" ry="4"/>
    <ellipse cx="118" cy="116" rx="1.8" ry="4"/>
  </g>
  <g fill="#bb9af7" fill-opacity="0.2">
    <ellipse cx="32" cy="28" rx="1.5" ry="3.2"/>
    <ellipse cx="64" cy="34" rx="1.5" ry="3.2"/>
    <ellipse cx="96" cy="30" rx="1.5" ry="3.2"/>
    <ellipse cx="36" cy="66" rx="1.5" ry="3.2"/>
    <ellipse cx="68" cy="70" rx="1.5" ry="3.2"/>
    <ellipse cx="100" cy="64" rx="1.5" ry="3.2"/>
  </g>
</svg>
