<svg xmlns="http://www.w3.org/2000/svg" width="128" height="128" viewBox="0 0 128 128" shape-rendering="crispEdges">
  <g fill="#c0caf5" fill-opacity="0.34">
    <ellipse cx="10" cy="8" rx="1.8" ry="4"/>
    <ellipse cx="26" cy="22" rx="1.8" ry="4"/>
    <ellipse cx="42" cy="12" rx="1.8" ry="4"/>
    <ellipse cx="58" cy="28" rx="1.8" ry="4"/>
    <ellipse cx="74" cy="10" rx="1.8" ry="4"/>
    <ellipse cx="90" cy="24" rx="1.8" ry="4"/>
    <ellipse cx="106" cy="14" rx="1.8" ry="4"/>
    <ellipse cx="122" cy="30" rx="1.8" ry="4"/>
    <ellipse cx="16" cy="44" rx="1.8" ry="4"/>
    <ellipse cx="34" cy="56" rx="1.8" ry="4"/>
    <ellipse cx="50" cy="48" rx="1.8" ry="4"/>
    <ellipse cx="66" cy="60" rx="1.8" ry="4"/>
    <ellipse cx="82" cy="46" rx="1.8" ry="4"/>
    <ellipse cx="98" cy="58" rx="1.8" ry="4"/>
    <ellipse cx="114" cy="50" rx="1.8" ry="4"/>
    <ellipse cx="8" cy="76" rx="1.8" ry="4"/>
    <ellipse cx="24" cy="88" rx="1.8" ry="4"/>
    <ellipse cx="40" cy="80" rx="1.8" ry="4"/>
    <ellipse cx="56" cy="92" rx="1.8" ry="4"/>
    <ellipse cx="72" cy="78" rx="1.8" ry="4"/>
    <ellipse cx="88" cy="90" rx="1.8" ry="4"/>
    <ellipse cx="104" cy="82" rx="1.8" ry="4"/>
    <ellipse cx="120" cy="94" rx="1.8" ry="4"/>
    <ellipse cx="20" cy="112" rx="1.8" ry="4"/>
    <ellipse cx="48" cy="116" rx="1.8" ry="4"/>
    <ellipse cx="80" cy="110" rx="1.8" ry="4"/>
    <ellipse cx="112" cy="118" rx="1.8" ry="4"/>
  </g>
  <g fill="#bb9af7" fill-opacity="0.22">
    <ellipse cx="30" cy="32" rx="1.5" ry="3.2"/>
    <ellipse cx="62" cy="38" rx="1.5" ry="3.2"/>
    <ellipse cx="94" cy="34" rx="1.5" ry="3.2"/>
    <ellipse cx="38" cy="70" rx="1.5" ry="3.2"/>
    <ellipse cx="70" cy="74" rx="1.5" ry="3.2"/>
    <ellipse cx="102" cy="68" rx="1.5" ry="3.2"/>
  </g>
</svg>
