<svg xmlns="http://www.w3.org/2000/svg" width="128" height="128" viewBox="0 0 128 128" shape-rendering="crispEdges">
  <g fill="#c0caf5" fill-opacity="0.34">
    <ellipse cx="12" cy="6" rx="1.8" ry="4"/>
    <ellipse cx="28" cy="16" rx="1.8" ry="4"/>
    <ellipse cx="44" cy="10" rx="1.8" ry="4"/>
    <ellipse cx="60" cy="20" rx="1.8" ry="4"/>
    <ellipse cx="76" cy="8" rx="1.8" ry="4"/>
    <ellipse cx="92" cy="18" rx="1.8" ry="4"/>
    <ellipse cx="108" cy="10" rx="1.8" ry="4"/>
    <ellipse cx="4" cy="36" rx="1.8" ry="4"/>
    <ellipse cx="18" cy="48" rx="1.8" ry="4"/>
    <ellipse cx="34" cy="40" rx="1.8" ry="4"/>
    <ellipse cx="50" cy="52" rx="1.8" ry="4"/>
    <ellipse cx="66" cy="42" rx="1.8" ry="4"/>
    <ellipse cx="82" cy="54" rx="1.8" ry="4"/>
    <ellipse cx="98" cy="44" rx="1.8" ry="4"/>
    <ellipse cx="114" cy="56" rx="1.8" ry="4"/>
    <ellipse cx="16" cy="70" rx="1.8" ry="4"/>
    <ellipse cx="32" cy="82" rx="1.8" ry="4"/>
    <ellipse cx="48" cy="72" rx="1.8" ry="4"/>
    <ellipse cx="64" cy="86" rx="1.8" ry="4"/>
    <ellipse cx="80" cy="74" rx="1.8" ry="4"/>
    <ellipse cx="96" cy="88" rx="1.8" ry="4"/>
    <ellipse cx="112" cy="76" rx="1.8" ry="4"/>
    <ellipse cx="8" cy="102" rx="1.8" ry="4"/>
    <ellipse cx="42" cy="108" rx="1.8" ry="4"/>
    <ellipse cx="74" cy="104" rx="1.8" ry="4"/>
    <ellipse cx="106" cy="110" rx="1.8" ry="4"/>
    <ellipse cx="124" cy="100" rx="1.8" ry="4"/>
  </g>
  <g fill="#9d7cff" fill-opacity="0.22">
    <ellipse cx="36" cy="26" rx="1.5" ry="3.2"/>
    <ellipse cx="68" cy="32" rx="1.5" ry="3.2"/>
    <ellipse cx="100" cy="28" rx="1.5" ry="3.2"/>
    <ellipse cx="40" cy="64" rx="1.5" ry="3.2"/>
    <ellipse cx="72" cy="68" rx="1.5" ry="3.2"/>
    <ellipse cx="104" cy="62" rx="1.5" ry="3.2"/>
  </g>
</svg>
