<svg xmlns="http://www.w3.org/2000/svg" width="128" height="128" viewBox="0 0 128 128" shape-rendering="crispEdges">
  <g fill="#c0caf5" fill-opacity="0.34">
    <ellipse cx="14" cy="14" rx="1.8" ry="4"/>
    <ellipse cx="30" cy="6" rx="1.8" ry="4"/>
    <ellipse cx="46" cy="20" rx="1.8" ry="4"/>
    <ellipse cx="62" cy="12" rx="1.8" ry="4"/>
    <ellipse cx="78" cy="24" rx="1.8" ry="4"/>
    <ellipse cx="94" cy="8" rx="1.8" ry="4"/>
    <ellipse cx="110" cy="18" rx="1.8" ry="4"/>
    <ellipse cx="6" cy="38" rx="1.8" ry="4"/>
    <ellipse cx="22" cy="52" rx="1.8" ry="4"/>
    <ellipse cx="38" cy="42" rx="1.8" ry="4"/>
    <ellipse cx="54" cy="54" rx="1.8" ry="4"/>
    <ellipse cx="70" cy="44" rx="1.8" ry="4"/>
    <ellipse cx="86" cy="56" rx="1.8" ry="4"/>
    <ellipse cx="102" cy="46" rx="1.8" ry="4"/>
    <ellipse cx="118" cy="58" rx="1.8" ry="4"/>
    <ellipse cx="12" cy="74" rx="1.8" ry="4"/>
    <ellipse cx="28" cy="86" rx="1.8" ry="4"/>
    <ellipse cx="44" cy="76" rx="1.8" ry="4"/>
    <ellipse cx="60" cy="90" rx="1.8" ry="4"/>
    <ellipse cx="76" cy="78" rx="1.8" ry="4"/>
    <ellipse cx="92" cy="92" rx="1.8" ry="4"/>
    <ellipse cx="108" cy="80" rx="1.8" ry="4"/>
    <ellipse cx="124" cy="94" rx="1.8" ry="4"/>
    <ellipse cx="18" cy="110" rx="1.8" ry="4"/>
    <ellipse cx="50" cy="116" rx="1.8" ry="4"/>
    <ellipse cx="82" cy="112" rx="1.8" ry="4"/>
    <ellipse cx="114" cy="118" rx="1.8" ry="4"/>
  </g>
  <g fill="#9d7cff" fill-opacity="0.24">
    <ellipse cx="34" cy="30" rx="1.5" ry="3.2"/>
    <ellipse cx="66" cy="36" rx="1.5" ry="3.2"/>
    <ellipse cx="98" cy="32" rx="1.5" ry="3.2"/>
    <ellipse cx="42" cy="68" rx="1.5" ry="3.2"/>
    <ellipse cx="74" cy="72" rx="1.5" ry="3.2"/>
    <ellipse cx="106" cy="66" rx="1.5" ry="3.2"/>
  </g>
</svg>
