<svg width="223" height="83" viewBox="0 0 223 83" fill="none" xmlns="http://www.w3.org/2000/svg">
<rect width="223" height="83" fill="#1E1E1E"/>
<g filter="url(#filter0_i_0_1)">
<path d="M0 0H223V41V83H0V41.5V0Z" fill="#FF6347"/>
</g>
<path d="M72.0094 35.6719C72.089 34.5483 71.7907 33.6783 71.1145 33.0618C70.4483 32.4453 69.3944 32.1371 67.9526 32.1371C66.998 32.1371 66.1827 32.2614 65.5066 32.5099C64.8304 32.7486 64.2985 33.0866 63.9107 33.5241C63.5229 33.9517 63.2793 34.4489 63.1799 35.0156C63.0904 35.4631 63.1152 35.8608 63.2544 36.2088C63.3936 36.5568 63.6373 36.8651 63.9853 37.1335C64.3432 37.402 64.7857 37.6357 65.3127 37.8345C65.8496 38.0334 66.4512 38.2074 67.1174 38.3565L69.623 38.9531C71.0748 39.2812 72.3326 39.7188 73.3965 40.2656C74.4703 40.8026 75.3404 41.4538 76.0066 42.2195C76.6728 42.9751 77.1301 43.8452 77.3787 44.8295C77.6273 45.8139 77.6472 46.9176 77.4384 48.1406C77.1202 50.0696 76.3596 51.7251 75.1564 53.1072C73.9632 54.4893 72.4022 55.5483 70.4732 56.2841C68.5542 57.0199 66.3219 57.3878 63.7765 57.3878C61.231 57.3878 59.0684 57.005 57.2885 56.2393C55.5186 55.4638 54.236 54.2955 53.4405 52.7344C52.6451 51.1733 52.4313 49.2045 52.7992 46.8281H59.8539C59.7445 47.8125 59.8688 48.6328 60.2267 49.2891C60.5946 49.9453 61.1614 50.4425 61.927 50.7805C62.6926 51.1186 63.6174 51.2876 64.7012 51.2876C65.6955 51.2876 66.5655 51.1534 67.3113 50.8849C68.0669 50.6165 68.6685 50.2436 69.1159 49.7663C69.5733 49.2891 69.8517 48.7422 69.9512 48.1257C70.0506 47.5589 69.9561 47.0668 69.6678 46.6491C69.3894 46.2315 68.9121 45.8686 68.236 45.5604C67.5698 45.2521 66.6948 44.9737 65.611 44.7251L62.5534 43.9794C60.0279 43.3629 58.1138 42.3786 56.8113 41.0263C55.5186 39.674 55.0613 37.8395 55.4391 35.5227C55.7573 33.6236 56.5428 31.9631 57.7956 30.5412C59.0584 29.1193 60.6543 28.0156 62.5833 27.2301C64.5222 26.4347 66.655 26.0369 68.9817 26.0369C71.3482 26.0369 73.3368 26.4396 74.9476 27.245C76.5684 28.0405 77.7367 29.1641 78.4526 30.6158C79.1784 32.0575 79.3873 33.7429 79.079 35.6719H72.0094ZM86.1039 57.3878C84.6522 57.3878 83.3993 57.1442 82.3453 56.657C81.3013 56.1598 80.5357 55.4091 80.0485 54.4048C79.5712 53.4006 79.4569 52.1477 79.7054 50.6463C79.9242 49.3736 80.3269 48.3047 80.9135 47.4396C81.5101 46.5646 82.2409 45.8537 83.106 45.3068C83.981 44.7599 84.9554 44.3423 86.0293 44.054C87.1032 43.7656 88.2267 43.5717 89.4 43.4723C90.7125 43.353 91.7765 43.2237 92.5918 43.0845C93.4171 42.9453 94.0336 42.7514 94.4412 42.5028C94.8489 42.2443 95.0975 41.8864 95.187 41.429V41.3544C95.3063 40.5888 95.1422 39.9972 94.6948 39.5795C94.2473 39.1619 93.5762 38.9531 92.6813 38.9531C91.7267 38.9531 90.9114 39.1619 90.2353 39.5795C89.5591 39.9972 89.0868 40.5739 88.8184 41.3097L82.1365 41.071C82.5542 39.679 83.2701 38.4361 84.2843 37.3423C85.2985 36.2386 86.5861 35.3736 88.1472 34.7472C89.7182 34.1108 91.5328 33.7926 93.5911 33.7926C95.0428 33.7926 96.3553 33.9666 97.5286 34.3146C98.7019 34.6527 99.6912 35.1499 100.497 35.8061C101.312 36.4524 101.894 37.2479 102.242 38.1925C102.59 39.1371 102.664 40.2159 102.465 41.429L99.8553 57H92.9945L93.5314 53.8082H93.3525C92.8155 54.5838 92.1841 55.2401 91.4583 55.777C90.7424 56.3139 89.937 56.7166 89.0421 56.9851C88.1472 57.2536 87.1678 57.3878 86.1039 57.3878ZM89.1763 52.6151C89.9419 52.6151 90.6678 52.456 91.3539 52.1378C92.04 51.8196 92.6167 51.3821 93.084 50.8253C93.5613 50.2585 93.8645 49.6023 93.9938 48.8565L94.3368 46.679C94.128 46.7884 93.8645 46.8878 93.5463 46.9773C93.2282 47.0668 92.8901 47.1513 92.5321 47.2308C92.1742 47.3004 91.8063 47.37 91.4284 47.4396C91.0605 47.4993 90.7076 47.554 90.3695 47.6037C89.6536 47.7131 89.0321 47.8821 88.5051 48.1108C87.9782 48.3395 87.5556 48.6378 87.2374 49.0057C86.9292 49.3636 86.7402 49.7912 86.6706 50.2884C86.5513 51.0341 86.7253 51.6108 87.1926 52.0185C87.66 52.4162 88.3212 52.6151 89.1763 52.6151ZM104.315 57L108.133 34.0909H115.426L111.608 57H104.315ZM112.294 31.4062C111.26 31.4062 110.42 31.0632 109.774 30.3771C109.127 29.6911 108.874 28.8707 109.013 27.9162C109.152 26.9517 109.639 26.1314 110.475 25.4553C111.31 24.7791 112.24 24.4411 113.264 24.4411C114.298 24.4411 115.128 24.7791 115.754 25.4553C116.391 26.1314 116.639 26.9517 116.5 27.9162C116.381 28.8707 115.904 29.6911 115.068 30.3771C114.243 31.0632 113.318 31.4062 112.294 31.4062ZM124.588 57.3281C122.897 57.3281 121.431 56.8906 120.188 56.0156C118.945 55.1406 118.055 53.8281 117.518 52.0781C116.991 50.3281 116.941 48.1555 117.369 45.5604C117.816 42.8658 118.612 40.6484 119.755 38.9084C120.899 37.1683 122.231 35.8807 123.752 35.0455C125.284 34.2102 126.845 33.7926 128.436 33.7926C129.639 33.7926 130.633 34.0014 131.419 34.419C132.214 34.8267 132.836 35.3537 133.283 36C133.73 36.6463 134.039 37.3175 134.208 38.0135H134.372L136.296 26.4545H143.589L138.518 57H131.299L131.911 53.2862H131.687C131.26 53.9922 130.713 54.6534 130.047 55.2699C129.38 55.8864 128.59 56.3835 127.675 56.7614C126.77 57.1392 125.741 57.3281 124.588 57.3281ZM128.033 51.6456C128.918 51.6456 129.718 51.397 130.434 50.8999C131.15 50.3928 131.752 49.6818 132.239 48.767C132.736 47.8523 133.084 46.7784 133.283 45.5455C133.492 44.2926 133.502 43.2138 133.313 42.3089C133.124 41.4041 132.751 40.7081 132.194 40.2209C131.647 39.7337 130.926 39.4901 130.032 39.4901C129.137 39.4901 128.336 39.7386 127.63 40.2358C126.924 40.733 126.338 41.4339 125.87 42.3388C125.403 43.2436 125.065 44.3125 124.856 45.5455C124.657 46.7784 124.637 47.8523 124.797 48.767C124.966 49.6818 125.319 50.3928 125.855 50.8999C126.402 51.397 127.128 51.6456 128.033 51.6456ZM155.61 26.4545L150.539 57H143.157L148.228 26.4545H155.61ZM171.923 34.0909L171.014 39.4602H156.561L157.471 34.0909H171.923ZM161.394 28.6023H168.687L165.167 49.7962C165.097 50.2436 165.107 50.6065 165.197 50.8849C165.296 51.1534 165.475 51.3473 165.734 51.4666C166.002 51.576 166.33 51.6307 166.718 51.6307C166.987 51.6307 167.285 51.6009 167.613 51.5412C167.941 51.4815 168.19 51.4368 168.359 51.407L168.597 56.6719C168.21 56.7812 167.688 56.9055 167.031 57.0447C166.385 57.1939 165.629 57.2884 164.764 57.3281C163.014 57.3977 161.568 57.1939 160.424 56.7166C159.291 56.2294 158.49 55.4737 158.023 54.4496C157.566 53.4254 157.476 52.1428 157.754 50.6016L161.394 28.6023Z" fill="black"/>
<defs>
<filter id="filter0_i_0_1" x="0" y="0" width="227" height="87" filterUnits="userSpaceOnUse" color-interpolation-filters="sRGB">
<feFlood flood-opacity="0" result="BackgroundImageFix"/>
<feBlend mode="normal" in="SourceGraphic" in2="BackgroundImageFix" result="shape"/>
<feColorMatrix in="SourceAlpha" type="matrix" values="0 0 0 0 0 0 0 0 0 0 0 0 0 0 0 0 0 0 127 0" result="hardAlpha"/>
<feOffset dx="5" dy="5"/>
<feGaussianBlur stdDeviation="2"/>
<feComposite in2="hardAlpha" operator="arithmetic" k2="-1" k3="1"/>
<feColorMatrix type="matrix" values="0 0 0 0 0 0 0 0 0 0 0 0 0 0 0 0 0 0 0.25 0"/>
<feBlend mode="normal" in2="shape" result="effect1_innerShadow_0_1"/>
</filter>
</defs>
</svg>
